<svg width="1100" height="428" viewBox="0 0 1100 428" fill="none" xmlns="http://www.w3.org/2000/svg">
    <rect width="1100" height="428" fill="#F9A8D4" />
    <rect width="1100" height="428" fill="#F472B6" />
    <path
        d="M471.075 251.709H459.257L493.439 158.618H505.075L539.257 251.709H527.439L499.62 173.345H498.893L471.075 251.709ZM475.439 215.345H523.075V225.345H475.439V215.345ZM563.03 158.618V251.709H552.302V158.618H563.03ZM593.405 158.618V251.709H582.677V158.618H593.405Z"
        fill="white" />
    <path d="M616.984 208.209V251.709" stroke="white" stroke-width="8" />
    <path
        d="M437.301 327.499C430.53 327.185 425.802 327.612 419.413 324.626C409.778 320.123 402.661 311.263 399.541 301.231C397.017 293.118 397.437 283.533 401.969 276.126C406.296 269.054 414.008 265.435 421.995 264.633C443.916 262.433 465.475 274.372 485.015 282.487C516.464 295.549 549.375 303.934 583.725 302.667C596.936 302.18 615.261 299.701 627.984 296.271C649.122 290.573 671.402 281.361 685.839 264.12C690.436 258.631 694.633 252.561 697.143 245.856C702.377 231.877 702.43 211.714 698.409 197.629C689.671 167.022 666.516 141.985 640.503 124.947C621.039 112.199 604.397 105.186 581.485 101.98C567.262 99.9891 540.388 99.4408 532.728 116.465C531.519 119.153 531.952 122.498 532.848 125.306C534.682 131.058 539.075 132.868 544.392 133.737C549.033 134.496 551.494 132.941 555.508 131.719"
        stroke="white" stroke-width="5" stroke-linecap="round" />
    <path
        d="M636.945 188.445C636.771 197.478 624.848 202.026 618.142 196.132C614.419 192.86 612.173 187.38 611.989 182.486C611.889 179.818 613.265 177.232 615.93 179.707C616.804 180.519 617.565 181.775 618.086 182.832C618.475 183.619 618.346 185.723 619.096 185.265C619.625 184.941 619.731 184.199 620.063 183.675C620.966 182.252 622.16 180.451 623.921 179.984C627.277 179.094 629.108 183.183 627.585 185.707C626.353 187.748 624.055 188.713 622.013 189.689"
        stroke="white" stroke-width="4.5" stroke-linecap="round" />
</svg>